<svg width="28" height="25" viewBox="0 0 28 25" fill="none" xmlns="http://www.w3.org/2000/svg">
<path d="M1.58513 0.407297C1.46209 0.40571 1.3402 0.431074 1.22801 0.481609C1.11582 0.532143 1.01606 0.606621 0.935717 0.699817C0.855377 0.793012 0.79641 0.902663 0.762957 1.02107C0.729504 1.13948 0.722376 1.26378 0.742074 1.38524L4.32083 23.1107C4.36542 23.3765 4.50226 23.6182 4.70732 23.7932C4.91237 23.9682 5.17253 24.0653 5.44209 24.0675H22.6109C22.8129 24.0702 23.0092 24.0001 23.164 23.8701C23.3187 23.7401 23.4216 23.5589 23.4539 23.3594L27.0411 1.39367C27.0608 1.27221 27.0537 1.14791 27.0202 1.0295C26.9868 0.911094 26.9278 0.801442 26.8475 0.708247C26.7671 0.615052 26.6674 0.540573 26.5552 0.490039C26.443 0.439505 26.3211 0.414141 26.1981 0.415727L1.58513 0.407297ZM16.6547 16.1091H11.1749L9.69108 8.36149H17.9825L16.6547 16.1091Z" fill="#2684FF"/>
<path d="M25.8945 8.36148H17.9824L16.6546 16.1091H11.1748L4.70435 23.7935C4.90943 23.9709 5.1709 24.0695 5.44202 24.0718H22.615C22.8171 24.0744 23.0134 24.0043 23.1681 23.8743C23.3228 23.7443 23.4257 23.5631 23.4581 23.3636L25.8945 8.36148Z" fill="url(#paint0_linear_314_54689)"/>
<defs>
<linearGradient id="paint0_linear_314_54689" x1="27.7239" y1="10.5281" x2="14.6482" y2="20.7375" gradientUnits="userSpaceOnUse">
<stop offset="0.18" stop-color="#0052CC"/>
<stop offset="1" stop-color="#2684FF"/>
</linearGradient>
</defs>
</svg>
