<svg width="25" height="24" viewBox="0 0 25 24" fill="none" xmlns="http://www.w3.org/2000/svg">
<path fill-rule="evenodd" clip-rule="evenodd" d="M12.7207 0.900879C6.0907 0.900879 0.720703 6.1773 0.720703 12.6918C0.720703 17.9092 4.1557 22.3161 8.9257 23.8784C9.5257 23.9815 9.7507 23.6278 9.7507 23.3183C9.7507 23.0383 9.7357 22.1097 9.7357 21.1222C6.7207 21.6676 5.9407 20.4 5.7007 19.7368C5.5657 19.3978 4.9807 18.3514 4.4707 18.0713C4.0507 17.8503 3.4507 17.3049 4.4557 17.2902C5.4007 17.2755 6.0757 18.145 6.3007 18.4988C7.3807 20.2821 9.1057 19.781 9.7957 19.4715C9.9007 18.7051 10.2157 18.1893 10.5607 17.8945C7.8907 17.5997 5.1007 16.5827 5.1007 12.0727C5.1007 10.7905 5.5657 9.7293 6.3307 8.90394C6.2107 8.60917 5.7907 7.4006 6.4507 5.77936C6.4507 5.77936 7.4557 5.46984 9.7507 6.98792C10.7107 6.72263 11.7307 6.58998 12.7507 6.58998C13.7707 6.58998 14.7907 6.72263 15.7507 6.98792C18.0457 5.45511 19.0507 5.77936 19.0507 5.77936C19.7107 7.4006 19.2907 8.60917 19.1707 8.90394C19.9357 9.7293 20.4007 10.7757 20.4007 12.0727C20.4007 16.5975 17.5957 17.5997 14.9257 17.8945C15.3607 18.2629 15.7357 18.9704 15.7357 20.0758C15.7357 21.6528 15.7207 22.9203 15.7207 23.3183C15.7207 23.6278 15.9457 23.9963 16.5457 23.8784C18.9279 23.0882 20.998 21.5838 22.4645 19.5771C23.931 17.5703 24.7201 15.1622 24.7207 12.6918C24.7207 6.1773 19.3507 0.900879 12.7207 0.900879Z" fill="#0D1017"/>
</svg>
