<svg width="26" height="25" viewBox="0 0 26 25" fill="none" xmlns="http://www.w3.org/2000/svg">
<path d="M24.8956 9.77405L24.8625 9.6857L21.5179 0.961422C21.4502 0.790118 21.3297 0.6448 21.174 0.546505C21.0577 0.472099 20.9257 0.425958 20.7884 0.41178C20.6511 0.397601 20.5125 0.41578 20.3835 0.464859C20.2545 0.513937 20.1388 0.592551 20.0457 0.694399C19.9525 0.796247 19.8846 0.918495 19.8472 1.05135L17.5896 7.96293H8.44724L6.18966 1.05135C6.152 0.918694 6.08387 0.796675 5.99069 0.695022C5.89752 0.59337 5.78188 0.514895 5.653 0.465856C5.52412 0.416818 5.38556 0.398572 5.24838 0.412574C5.1112 0.426576 4.97919 0.472439 4.86287 0.546505C4.7071 0.6448 4.58664 0.790118 4.51895 0.961422L1.17595 9.68728L1.14125 9.77405C0.659954 11.0319 0.60066 12.4121 0.972305 13.7066C1.34395 15.0011 2.12639 16.1397 3.20163 16.9507L3.21425 16.9601L3.24265 16.9822L8.3305 20.7954L10.8547 22.7027L12.3882 23.8623C12.5681 23.9982 12.7874 24.0717 13.0129 24.0717C13.2384 24.0717 13.4577 23.9982 13.6376 23.8623L15.1711 22.7027L17.6953 20.7954L22.8194 16.9601L22.8336 16.9491C23.9088 16.1384 24.6914 15.0002 25.0633 13.706C25.4352 12.4119 25.3763 11.0319 24.8956 9.77405Z" fill="#E24329"/>
<path d="M24.8957 9.77405L24.8626 9.6857C23.233 10.0201 21.6976 10.7108 20.3663 11.7082L13.0225 17.2615L17.6986 20.7954L22.8227 16.9601L22.8369 16.9491C23.9115 16.138 24.6934 14.9996 25.0648 13.7055C25.4361 12.4113 25.3768 11.0315 24.8957 9.77405Z" fill="#FC6D26"/>
<path d="M8.33057 20.7954L10.8548 22.7027L12.3882 23.8623C12.5681 23.9982 12.7875 24.0717 13.013 24.0717C13.2384 24.0717 13.4578 23.9982 13.6377 23.8623L15.1712 22.7027L17.6954 20.7954L13.0193 17.2615L8.33057 20.7954Z" fill="#FCA326"/>
<path d="M5.67062 11.7082C4.33982 10.7113 2.80491 10.0211 1.17595 9.68729L1.14125 9.77405C0.659954 11.0319 0.60066 12.4121 0.972305 13.7066C1.34395 15.0011 2.12639 16.1397 3.20163 16.9507L3.21425 16.9602L3.24265 16.9822L8.3305 20.7954L13.0097 17.2615L5.67062 11.7082Z" fill="#FC6D26"/>
</svg>
