<svg width="36" height="36" viewBox="0 0 36 36" fill="none" xmlns="http://www.w3.org/2000/svg">
<path d="M0 18C0 8.05887 8.05887 0 18 0C27.9411 0 36 8.05887 36 18C36 27.9411 27.9411 36 18 36C8.05887 36 0 27.9411 0 18Z" fill="url(#paint0_linear_6554_45876)"/>
<path fill-rule="evenodd" clip-rule="evenodd" d="M0.652568 18C0.652568 27.5807 8.41928 35.3474 18 35.3474C27.5807 35.3474 35.3474 27.5807 35.3474 18C35.3474 8.41928 27.5807 0.652568 18 0.652568C8.41928 0.652568 0.652568 8.41928 0.652568 18ZM18 0C8.05887 0 0 8.05887 0 18C0 27.9411 8.05887 36 18 36C27.9411 36 36 27.9411 36 18C36 8.05887 27.9411 0 18 0Z" fill="url(#paint1_linear_6554_45876)" fill-opacity="0.47" style="mix-blend-mode:overlay"/>
<path fill-rule="evenodd" clip-rule="evenodd" d="M18.5135 23.9963V30.6282C20.5841 30.5411 22.6047 29.9651 24.41 28.9471C26.2152 27.9292 27.7538 26.4984 28.8999 24.7716C30.046 23.0449 30.767 21.0714 31.0039 19.0125C31.2409 16.9537 30.987 14.868 30.2631 12.926C30.2203 12.8107 30.1383 12.7142 30.0314 12.6533C29.9246 12.5924 29.7997 12.571 29.6787 12.5929C29.5577 12.6149 29.4482 12.6787 29.3695 12.7732C29.2908 12.8677 29.2479 12.987 29.2483 13.1099C29.2489 13.1727 29.2601 13.2348 29.2814 13.2938C29.7916 14.6507 30.0524 16.0887 30.0512 17.5383C30.0512 23.6594 25.5018 28.7149 19.5802 29.4873V23.8598C19.93 23.7927 20.2743 23.6991 20.61 23.5799V28.3081C25.4651 27.1285 29.0732 22.7542 29.0732 17.5394C29.0757 15.5591 28.547 13.6144 27.5421 11.9079C26.5373 10.2015 25.0931 8.79582 23.3601 7.83744C23.298 7.80334 23.2296 7.78221 23.1591 7.77533C23.0886 7.76846 23.0174 7.77598 22.9499 7.79744C22.8824 7.81891 22.8199 7.85386 22.7663 7.90019C22.7127 7.94652 22.6691 8.00325 22.6381 8.06695C22.6033 8.13899 22.5852 8.21794 22.5851 8.29793C22.5851 8.39125 22.61 8.48287 22.6572 8.56337C22.7044 8.64386 22.7722 8.71031 22.8536 8.75585C24.4237 9.62314 25.7325 10.8955 26.6438 12.4405C27.5551 13.9854 28.0355 15.7465 28.0349 17.5402C28.0349 21.7847 25.3915 25.4134 21.6767 26.8791V22.6862C21.9733 22.5944 22.2368 22.4183 22.4351 22.1794C22.6334 21.9404 22.7578 21.649 22.7933 21.3405C22.8288 21.032 22.7738 20.7199 22.6349 20.4422C22.4961 20.1645 22.2794 19.9331 22.0114 19.7764C22.2491 17.4912 22.9923 17.0299 23.5075 16.7103C23.8078 16.5239 24.0306 16.3857 24.0306 15.9623V15.2877C24.0306 13.559 20.0418 7.9316 18.17 7.79588C18.1126 7.78999 18.0626 7.78999 18.0052 7.78999C17.9478 7.78999 17.8901 7.79294 17.8327 7.79588C15.9609 7.9316 11.9666 13.559 11.9666 15.2877V15.9608C11.9666 16.3842 12.1894 16.5225 12.4897 16.7088C13.0048 17.0285 13.7481 17.4897 13.9858 19.775C13.7424 19.9154 13.5407 20.1181 13.4014 20.3622C13.2621 20.6064 13.1903 20.8831 13.1932 21.1642C13.1932 21.8807 13.6953 22.485 14.3205 22.6873V26.8803C10.6057 25.4145 7.96409 21.7843 7.96262 17.5409C7.96262 13.7599 10.0591 10.4669 13.1487 8.75585C13.25 8.69929 13.3297 8.61074 13.3754 8.50405C13.4211 8.39736 13.4301 8.27855 13.401 8.1662C13.372 8.05385 13.3065 7.95429 13.2149 7.88309C13.1232 7.8119 13.0106 7.77308 12.8945 7.77271C12.8072 7.77253 12.7214 7.79482 12.6452 7.83744C10.9111 8.79514 9.46559 10.2005 8.45943 11.9069C7.45327 13.6134 6.92327 15.5585 6.92467 17.5394C6.92467 22.7542 10.5321 27.1285 15.3872 28.3081V23.581C15.7229 23.7002 16.0672 23.7938 16.417 23.8609V29.4884C10.4953 28.7145 5.94668 23.6605 5.94557 17.5394C5.94451 16.0896 6.2062 14.6515 6.71797 13.295C6.7419 13.2307 6.75295 13.1624 6.75047 13.0939C6.748 13.0254 6.73206 12.958 6.70356 12.8957C6.67506 12.8333 6.63455 12.7772 6.58436 12.7305C6.53417 12.6838 6.47527 12.6475 6.41103 12.6235C6.34679 12.5996 6.27847 12.5885 6.20996 12.591C6.14145 12.5935 6.0741 12.6094 6.01175 12.6379C5.9494 12.6664 5.89328 12.7069 5.84658 12.7571C5.79989 12.8073 5.76353 12.8662 5.7396 12.9305C5.01338 14.8716 4.7576 16.9573 4.99323 19.0164C5.22887 21.0755 5.9492 23.0495 7.09517 24.7764C8.24114 26.5033 9.78012 27.934 11.5859 28.9512C13.3917 29.9684 15.4128 30.5431 17.4837 30.6282V23.9963C17.6676 24.0077 17.9986 24.0136 17.9986 24.0136C17.9986 24.0136 18.3296 24.0077 18.5135 23.9963ZM20.1084 21.2672C20.132 21.5145 20.2407 21.746 20.4158 21.9222C20.5155 22.0227 20.634 22.1024 20.7646 22.1568C20.8952 22.2113 21.0353 22.2393 21.1768 22.2393C21.4253 22.2395 21.6661 22.1536 21.8584 21.9963C22.0507 21.8389 22.1824 21.6197 22.2313 21.3761C22.2801 21.1325 22.243 20.8795 22.1263 20.6602C22.0095 20.4408 21.8204 20.2687 21.5911 20.1732C21.3617 20.0776 21.1063 20.0645 20.8684 20.1361C20.6305 20.2077 20.4247 20.3595 20.2861 20.5657C20.1475 20.7719 20.0847 21.0198 20.1084 21.2672ZM15.8912 21.055C15.8672 20.8076 15.7583 20.5762 15.5828 20.4002C15.4832 20.3 15.3646 20.2205 15.2341 20.1663C15.1035 20.1121 14.9636 20.0842 14.8222 20.0843C14.5737 20.0842 14.3329 20.1703 14.1407 20.3278C13.9485 20.4854 13.8169 20.7047 13.7683 20.9484C13.7197 21.1921 13.757 21.4451 13.874 21.6643C13.9909 21.8836 14.1803 22.0555 14.4098 22.1508C14.6392 22.2462 14.8947 22.259 15.1326 22.1871C15.3704 22.1153 15.576 21.9632 15.7144 21.7567C15.8527 21.5503 15.9152 21.3023 15.8912 21.055Z" fill="url(#paint2_linear_6554_45876)"/>
<defs>
<linearGradient id="paint0_linear_6554_45876" x1="18" y1="0" x2="18" y2="36" gradientUnits="userSpaceOnUse">
<stop stop-color="#27312E"/>
<stop offset="1" stop-color="#0F1219"/>
</linearGradient>
<linearGradient id="paint1_linear_6554_45876" x1="4.98058" y1="1.13088e-07" x2="18" y2="36" gradientUnits="userSpaceOnUse">
<stop stop-color="white" stop-opacity="0.44"/>
<stop offset="1" stop-color="white" stop-opacity="0"/>
</linearGradient>
<linearGradient id="paint2_linear_6554_45876" x1="8.1395" y1="7.77271" x2="30.5757" y2="30.141" gradientUnits="userSpaceOnUse">
<stop stop-color="#A7FBFF"/>
<stop offset="1" stop-color="#0C9689"/>
</linearGradient>
</defs>
</svg>
